<svg id="svg" version="1.1" xmlns="http://www.w3.org/2000/svg" xmlns:xlink="http://www.w3.org/1999/xlink" width="400" height="400" viewBox="0, 0, 400,400"><g id="svgg"><path id="path0" d="M0.000 200.000 L 0.000 400.000 200.000 400.000 L 400.000 400.000 400.000 200.000 L 400.000 0.000 200.000 0.000 L 0.000 0.000 0.000 200.000 M74.320 159.049 C 79.445 160.147,87.755 163.593,88.607 164.974 C 88.910 165.465,87.288 169.486,86.787 169.486 C 86.654 169.486,86.020 169.129,85.378 168.693 C 76.005 162.324,58.755 161.578,51.104 167.210 C 46.994 170.236,45.009 174.444,45.439 179.222 C 46.082 186.365,50.242 189.634,63.059 193.071 C 73.045 195.748,74.693 196.215,77.386 197.131 C 91.795 202.031,96.626 214.931,88.161 225.904 C 79.260 237.442,51.949 237.286,39.138 225.625 L 37.642 224.263 38.836 222.258 C 40.269 219.852,40.143 219.870,42.205 221.755 C 51.498 230.248,71.939 232.019,81.366 225.148 C 87.556 220.636,88.212 211.198,82.688 206.149 C 79.578 203.307,75.917 201.830,65.257 199.119 C 47.740 194.663,42.329 191.269,40.380 183.513 C 37.233 170.992,45.500 160.563,60.121 158.610 C 63.072 158.216,71.674 158.482,74.320 159.049 M341.338 159.190 C 347.787 160.440,352.799 162.683,357.270 166.318 C 359.879 168.440,359.904 168.540,358.249 170.359 C 356.373 172.421,356.478 172.422,353.868 170.324 C 345.546 163.634,332.367 161.583,321.374 165.266 C 290.707 175.541,292.044 219.575,323.278 227.934 C 333.300 230.616,344.402 228.998,352.397 223.690 L 354.079 222.573 354.079 209.625 L 354.079 196.677 356.798 196.677 L 359.517 196.677 359.517 210.718 L 359.517 224.759 357.326 226.568 C 348.242 234.070,331.173 236.728,319.335 232.484 C 318.089 232.038,316.662 231.524,316.163 231.344 C 305.834 227.608,296.562 216.380,294.201 204.752 C 288.455 176.443,312.157 153.533,341.338 159.190 M123.694 165.634 C 125.839 169.332,128.773 174.396,130.213 176.888 C 131.653 179.381,133.896 183.255,135.196 185.498 C 136.496 187.742,138.303 190.869,139.210 192.447 C 140.784 195.184,146.280 204.678,150.879 212.606 C 152.057 214.637,153.093 216.302,153.182 216.306 C 153.270 216.311,154.075 215.057,154.970 213.520 C 160.165 204.605,160.922 203.298,168.580 190.030 C 171.601 184.796,174.786 179.290,175.658 177.795 C 176.529 176.299,179.338 171.442,181.899 167.002 L 186.556 158.928 188.897 158.920 L 191.239 158.912 191.302 194.864 C 191.336 214.637,191.370 231.461,191.377 232.251 L 191.390 233.686 188.595 233.773 L 185.801 233.860 185.801 202.259 C 185.801 183.144,185.691 170.727,185.523 170.831 C 185.271 170.987,180.700 178.776,170.002 197.281 C 167.841 201.020,165.438 205.166,164.661 206.495 C 162.543 210.123,160.214 214.133,157.241 219.274 L 154.568 223.895 153.097 223.805 L 151.626 223.716 147.915 217.372 C 142.993 208.956,131.475 189.141,125.663 179.090 C 123.097 174.652,120.895 171.015,120.770 171.009 C 120.646 171.002,120.544 185.141,120.544 202.428 L 120.544 233.860 117.749 233.773 L 114.955 233.686 114.877 196.677 C 114.834 176.322,114.864 159.498,114.943 159.290 C 115.041 159.033,115.836 158.912,117.440 158.912 L 119.793 158.912 123.694 165.634 M249.807 160.045 C 250.236 160.892,271.503 207.065,277.116 219.335 C 277.534 220.249,279.183 223.832,280.781 227.297 C 282.379 230.762,283.686 233.656,283.686 233.727 C 283.686 233.799,282.321 233.819,280.653 233.772 L 277.621 233.686 274.592 227.039 C 272.926 223.384,270.293 217.606,268.740 214.199 C 267.187 210.793,264.526 204.947,262.826 201.208 C 261.127 197.470,258.219 191.080,256.365 187.009 C 254.510 182.938,251.572 176.453,249.835 172.597 C 248.098 168.741,246.563 165.618,246.424 165.657 C 246.179 165.725,243.978 170.494,233.848 192.900 C 231.219 198.716,228.728 204.222,228.312 205.136 C 227.896 206.050,226.504 209.109,225.219 211.934 C 223.935 214.758,222.449 218.021,221.918 219.184 C 221.386 220.347,219.676 224.120,218.117 227.568 L 215.282 233.837 212.324 233.837 C 210.697 233.837,209.366 233.743,209.366 233.628 C 209.366 233.513,217.076 216.655,226.500 196.165 L 243.635 158.912 246.434 158.912 L 249.232 158.912 249.807 160.045 " stroke="none" fill="#f3f3f3" fill-rule="evenodd"></path><path id="path1" d="M59.503 158.942 C 46.468 160.628,38.614 169.769,40.167 181.444 C 41.380 190.553,46.491 194.079,65.710 199.063 C 78.744 202.443,83.148 204.711,85.294 209.153 C 89.378 217.606,84.348 226.219,73.867 228.719 C 63.084 231.291,48.985 228.227,41.930 221.779 L 40.300 220.290 39.183 222.077 C 37.809 224.275,37.800 224.088,39.350 225.588 C 49.583 235.486,73.731 237.196,84.885 228.811 C 92.979 222.726,94.360 209.987,87.644 203.354 C 83.576 199.335,80.063 197.739,68.882 194.827 C 52.955 190.678,48.987 188.709,46.312 183.623 C 44.982 181.096,45.051 175.379,46.446 172.409 C 51.061 162.585,68.579 160.045,82.779 167.140 C 84.856 168.178,86.649 169.071,86.762 169.124 C 87.352 169.402,88.841 165.187,88.300 164.768 C 82.514 160.293,69.469 157.654,59.503 158.942 M326.888 158.944 C 287.679 163.369,281.040 217.663,317.976 231.827 C 330.814 236.750,348.681 234.041,358.139 225.736 L 359.221 224.786 359.231 210.807 L 359.241 196.828 356.811 196.740 L 354.381 196.652 354.381 209.484 L 354.381 222.316 353.097 223.362 C 344.786 230.135,327.890 231.332,317.075 225.915 C 293.091 213.903,292.655 180.172,316.314 167.147 C 327.743 160.855,344.766 162.453,354.702 170.752 C 356.463 172.222,356.481 172.220,358.188 170.221 L 359.625 168.539 358.287 167.350 C 350.736 160.642,339.204 157.555,326.888 158.944 M115.250 159.277 C 115.168 159.492,115.136 176.322,115.179 196.677 L 115.257 233.686 117.749 233.774 L 120.242 233.861 120.242 202.296 C 120.242 183.791,120.355 170.661,120.515 170.562 C 120.665 170.469,121.400 171.446,122.147 172.734 C 122.894 174.022,126.077 179.494,129.220 184.894 C 132.363 190.295,137.701 199.471,141.083 205.287 C 144.466 211.103,148.271 217.628,149.540 219.789 L 151.848 223.716 153.148 223.716 L 154.449 223.716 157.084 219.184 C 158.533 216.692,162.200 210.370,165.234 205.136 C 168.267 199.902,171.540 194.260,172.506 192.598 C 175.917 186.731,180.606 178.649,183.068 174.397 C 184.438 172.029,185.681 170.168,185.831 170.260 C 185.989 170.358,186.103 183.680,186.103 202.133 L 186.103 233.837 188.672 233.837 L 191.241 233.837 191.164 196.450 L 191.088 159.063 189.124 158.986 C 186.711 158.890,186.796 158.831,185.118 161.782 C 184.363 163.112,182.876 165.695,181.814 167.523 C 180.753 169.350,173.919 181.152,166.628 193.748 C 154.077 215.432,153.346 216.620,152.867 216.104 C 152.588 215.804,150.790 212.840,148.870 209.517 C 144.323 201.645,129.074 175.272,126.991 171.678 C 126.100 170.142,124.602 167.559,123.662 165.938 C 122.721 164.317,121.448 162.107,120.832 161.027 L 119.713 159.063 117.556 158.975 C 116.003 158.911,115.357 158.995,115.250 159.277 M243.093 160.498 C 242.705 161.371,235.025 178.083,226.027 197.637 C 217.030 217.191,209.668 233.340,209.668 233.525 C 209.668 233.752,210.553 233.832,212.414 233.773 L 215.159 233.686 218.923 225.378 C 224.931 212.116,236.255 187.148,241.386 175.850 C 243.985 170.127,246.238 165.405,246.394 165.357 C 246.549 165.308,248.268 168.766,250.212 173.042 C 252.157 177.317,255.261 184.147,257.112 188.218 C 258.962 192.289,261.468 197.795,262.681 200.453 C 263.894 203.112,265.344 206.299,265.903 207.536 C 266.461 208.773,269.368 215.162,272.362 221.735 L 277.806 233.686 280.633 233.773 C 283.228 233.853,283.448 233.816,283.305 233.320 C 283.056 232.458,249.519 159.708,249.177 159.290 C 248.975 159.042,247.996 158.912,246.334 158.912 L 243.799 158.912 243.093 160.498 " stroke="none" fill="#565656" fill-rule="evenodd"></path><path id="path2" d="M354.149 197.885 C 354.149 198.467,354.211 198.705,354.287 198.414 C 354.363 198.123,354.363 197.647,354.287 197.356 C 354.211 197.066,354.149 197.304,354.149 197.885 M354.161 200.302 C 354.161 201.050,354.220 201.356,354.292 200.982 C 354.364 200.608,354.364 199.996,354.292 199.622 C 354.220 199.248,354.161 199.554,354.161 200.302 M354.172 204.985 C 354.174 205.982,354.230 206.353,354.298 205.810 C 354.365 205.267,354.363 204.452,354.294 203.998 C 354.225 203.544,354.170 203.988,354.172 204.985 M354.155 210.423 C 354.158 211.088,354.220 211.324,354.292 210.948 C 354.364 210.572,354.362 210.029,354.286 209.740 C 354.211 209.451,354.151 209.758,354.155 210.423 M354.178 213.746 C 354.179 214.909,354.234 215.348,354.299 214.721 C 354.364 214.095,354.363 213.143,354.297 212.607 C 354.230 212.070,354.176 212.583,354.178 213.746 M185.936 223.263 C 185.936 228.995,185.977 231.341,186.027 228.474 C 186.076 225.608,186.076 220.918,186.027 218.051 C 185.977 215.185,185.936 217.530,185.936 223.263 M354.169 218.429 C 354.169 219.343,354.226 219.717,354.295 219.260 C 354.364 218.803,354.364 218.055,354.295 217.598 C 354.226 217.141,354.169 217.515,354.169 218.429 M303.927 223.112 C 304.491 223.693,305.020 224.169,305.103 224.169 C 305.187 224.169,304.793 223.693,304.230 223.112 C 303.666 222.530,303.137 222.054,303.054 222.054 C 302.971 222.054,303.364 222.530,303.927 223.112 " stroke="none" fill="#a4a4a4" fill-rule="evenodd"></path><path id="path3" d="M64.577 158.531 C 65.449 158.592,66.877 158.592,67.749 158.531 C 68.622 158.470,67.908 158.420,66.163 158.420 C 64.418 158.420,63.705 158.470,64.577 158.531 M331.949 158.521 C 332.323 158.593,332.934 158.593,333.308 158.521 C 333.682 158.449,333.376 158.390,332.628 158.390 C 331.881 158.390,331.575 158.449,331.949 158.521 M44.999 165.483 L 43.958 166.616 45.091 165.575 C 46.145 164.606,46.362 164.350,46.132 164.350 C 46.081 164.350,45.571 164.860,44.999 165.483 M185.335 170.413 C 185.185 170.655,185.227 170.712,185.452 170.573 C 185.714 170.411,185.819 175.672,185.874 191.750 L 185.948 213.142 186.027 191.860 C 186.101 172.087,186.012 169.318,185.335 170.413 M120.381 170.770 C 120.302 170.978,120.273 185.219,120.316 202.417 L 120.396 233.686 120.470 202.173 C 120.525 178.445,120.630 170.712,120.893 170.875 C 121.109 171.008,121.159 170.958,121.026 170.742 C 120.748 170.292,120.560 170.300,120.381 170.770 M298.868 194.713 C 298.871 195.378,298.933 195.614,299.005 195.238 C 299.077 194.862,299.075 194.319,298.999 194.030 C 298.924 193.741,298.864 194.048,298.868 194.713 M298.874 197.885 C 298.874 198.633,298.933 198.939,299.005 198.565 C 299.077 198.191,299.077 197.579,299.005 197.205 C 298.933 196.832,298.874 197.137,298.874 197.885 M359.353 210.725 C 359.353 218.036,359.393 220.984,359.441 217.276 C 359.489 213.567,359.489 207.585,359.441 203.982 C 359.393 200.380,359.353 203.414,359.353 210.725 M91.933 214.199 C 91.933 215.113,91.990 215.487,92.059 215.030 C 92.129 214.573,92.129 213.826,92.059 213.369 C 91.990 212.912,91.933 213.285,91.933 214.199 M63.833 234.363 C 64.794 234.423,66.290 234.422,67.156 234.361 C 68.022 234.301,67.236 234.251,65.408 234.252 C 63.580 234.253,62.871 234.302,63.833 234.363 M330.291 234.356 C 330.750 234.425,331.430 234.423,331.802 234.352 C 332.173 234.280,331.798 234.223,330.967 234.225 C 330.136 234.228,329.832 234.286,330.291 234.356 M334.371 234.358 C 334.914 234.425,335.730 234.424,336.184 234.355 C 336.638 234.286,336.193 234.231,335.196 234.233 C 334.199 234.234,333.828 234.291,334.371 234.358 " stroke="none" fill="#9c9c9c" fill-rule="evenodd"></path><path id="path4" d="M114.950 196.375 C 114.950 216.896,114.986 225.291,115.030 215.030 C 115.074 204.770,115.074 187.980,115.030 177.719 C 114.986 167.458,114.950 175.853,114.950 196.375 M64.879 163.363 C 65.585 163.427,66.741 163.427,67.447 163.363 C 68.153 163.300,67.576 163.248,66.163 163.248 C 64.751 163.248,64.173 163.300,64.879 163.363 M303.911 169.713 L 302.870 170.846 304.003 169.805 C 304.626 169.232,305.136 168.722,305.136 168.672 C 305.136 168.441,304.880 168.658,303.911 169.713 M39.663 178.701 C 39.666 179.532,39.724 179.836,39.794 179.377 C 39.863 178.917,39.861 178.238,39.790 177.866 C 39.718 177.494,39.661 177.870,39.663 178.701 M43.958 190.030 C 44.607 190.695,45.206 191.239,45.289 191.239 C 45.372 191.239,44.909 190.695,44.260 190.030 C 43.611 189.366,43.012 188.822,42.929 188.822 C 42.846 188.822,43.309 189.366,43.958 190.030 M293.461 196.224 C 293.460 197.719,293.511 198.369,293.574 197.668 C 293.638 196.967,293.638 195.743,293.576 194.949 C 293.513 194.154,293.462 194.728,293.461 196.224 M329.985 229.211 C 330.276 229.287,330.752 229.287,331.042 229.211 C 331.333 229.135,331.095 229.073,330.514 229.073 C 329.932 229.073,329.694 229.135,329.985 229.211 M335.275 229.217 C 335.651 229.289,336.195 229.286,336.484 229.211 C 336.773 229.135,336.465 229.076,335.801 229.079 C 335.136 229.083,334.900 229.144,335.275 229.217 M63.983 229.528 C 64.861 229.589,66.220 229.589,67.004 229.527 C 67.788 229.465,67.069 229.415,65.408 229.415 C 63.746 229.416,63.105 229.467,63.983 229.528 M191.325 232.175 C 191.327 233.006,191.386 233.310,191.455 232.851 C 191.525 232.392,191.523 231.712,191.451 231.340 C 191.380 230.969,191.323 231.344,191.325 232.175 " stroke="none" fill="#bcbcbc" fill-rule="evenodd"></path></g></svg>